<svg xmlns="http://www.w3.org/2000/svg" viewBox="0 0 128 128" role="img" aria-labelledby="title description">
  <title id="title">Porchcast cat</title>
  <desc id="description">A bright purple wide-eyed cat with whiskers, paws, and a curled tail on a plum rounded square.</desc>
  <rect x="3" y="3" width="122" height="122" rx="28" fill="#2b153d" stroke="#8b5cf6" stroke-width="4"/>

  <path d="M45 82c-12 4-15 19-6 28 9 10 29 11 44 4 10-5 15-13 15-22" fill="none" stroke="#b45cff" stroke-linecap="round" stroke-width="15"/>
  <ellipse cx="65" cy="91" rx="29" ry="27" fill="#6d28d9"/>
  <path fill="#8b5cf6" d="M32 47c-2.5-8.5-3-18.2-1.7-28.5.4-3 3.6-4.4 6-2.6L55 32.7a44 44 0 0 1 19.8.2l18.9-17c2.4-1.9 5.7-.4 6 2.6 1.3 10.7.7 20.6-2.2 29 3.7 5 4.7 11.2 2.8 17-3.8 11.7-16.5 18-35.6 18-19 0-31.6-6.3-35.2-18-1.8-5.9-.9-12.4 2.5-17.5Z"/>
  <path fill="#d8b4fe" d="m37 25.5 13.2 12a42 42 0 0 0-12.5 6.5c-1.1-5.8-1.4-12-.7-18.5Zm56 0-13.3 12A42 42 0 0 1 92.2 44c1.1-5.8 1.4-12 .8-18.5Z"/>

  <circle cx="49.5" cy="56.5" r="11.5" fill="#fff"/>
  <circle cx="79.5" cy="56.5" r="11.5" fill="#fff"/>
  <circle cx="53.5" cy="57" r="5.8" fill="#21132e"/>
  <circle cx="83.5" cy="57" r="5.8" fill="#21132e"/>
  <circle cx="55.5" cy="54.7" r="1.4" fill="#fff"/>
  <circle cx="85.5" cy="54.7" r="1.4" fill="#fff"/>

  <path d="m60.8 67.1 3.9 3.7 3.9-3.7c-2.6-1.6-5.2-1.6-7.8 0Z" fill="#e9d5ff"/>
  <path d="M64.7 70.6v2.2m0 0c-1.3 2.6-4.8 2.8-6.4.7m6.4-.7c1.3 2.6 4.8 2.8 6.4.7M47 68.5l-10-2m10 6-10 2m45.5-6 10-2m-10 6 10 2" fill="none" stroke="#d8b4fe" stroke-linecap="round" stroke-width="2.2"/>

  <rect x="48" y="87" width="15" height="24" rx="7.5" fill="#a855f7"/>
  <rect x="67" y="87" width="15" height="24" rx="7.5" fill="#a855f7"/>
  <path d="M55.5 105v4m19-4v4" stroke="#6d28d9" stroke-linecap="round" stroke-width="2"/>
</svg>
